<?xml version="1.0" encoding="utf-8"?>
<!-- Generator: Adobe Illustrator 22.1.0, SVG Export Plug-In . SVG Version: 6.00 Build 0)  -->
<svg version="1.1" id="Warstwa_1" xmlns="http://www.w3.org/2000/svg" xmlns:xlink="http://www.w3.org/1999/xlink" x="0px" y="0px"
	 width="264px" height="122.9px" viewBox="0 0 264 122.9" style="enable-background:new 0 0 264 122.9;" xml:space="preserve">
<style type="text/css">
	.st0{fill:#FFFFFF;}
</style>
<path class="st0" d="M85.2,58.7v-1.5l0,0l0.9-0.9l0.8,0.9l0.8-0.7L65.1,29.4c0-0.4,0.1-0.8,0.1-1c0.1-1.5,0.1-1.9-1.2-3.5
	c-0.3-0.4-0.8-0.8-1.2-1.2c-0.8-0.8-1.6-1.5-1.9-2.5c-0.2-0.6-0.2-1.4-0.1-2.1c0-0.8,0.1-1.7-0.2-2.4c-0.6-2-1.5-2.3-2.6-2.7
	c-0.6-0.2-1.1-0.4-1.8-0.8c-0.8-0.6-1.4-1.2-2.1-1.9c-0.8-0.8-1.8-1.8-3.1-2.7V7.9h1.1l0.2-0.2h0.3c0,0,0.1-0.5,0.3-0.6
	s0.5-0.2,0.7-0.3c0.1-0.1,0.3-0.4,0.3-0.4h-1.2v-2c0,0,0.2,0,0.4-0.4c0.3-0.4,0.4-0.5,0.8-0.7C54,3.1,54.3,3,54.5,2.7
	c0.2-0.2,0.4-0.5-0.2-0.4c-0.6,0.1-1.4,0.1-1.9-0.1c-0.5-0.2-1-0.6-1.1-0.8S51,1.1,50.6,1.1c-0.3,0-0.3-0.2-0.5-0.5
	C49.8,0.5,49.6,0,48.8,0s-1.1,0.1-1.1,0.1s0.6,0.6,0.6,0.9c0,0.4,0.1,0.6-0.1,0.7C48,1.8,47.9,1.8,47.8,2c-0.1,0.5-0.5,0.4-0.5,0.4
	S47,2.5,46.9,2c0-0.2-0.2-0.2-0.4-0.4c-0.2-0.1-0.1-0.3-0.1-0.7S47,0,47,0s-0.3,0-1.1,0s-1,0.5-1.3,0.8s-0.2,0.5-0.5,0.5
	s-0.6,0.1-0.7,0.3c-0.1,0.2-0.6,0.6-1.1,0.8s-1.4,0.2-1.9,0.1c-0.6-0.1-0.3,0.2-0.2,0.4C40.4,3,40.7,3.1,41,3.3s0.5,0.3,0.8,0.7
	s0.4,0.4,0.4,0.4v2.2H41c0,0,0.1,0.3,0.3,0.4c0.1,0.1,0.5,0.2,0.7,0.3c0.2,0.1,0.3,0.6,0.3,0.6h0.4l0.1,0.2H44v0.6
	c-1.3,0.9-2.4,1.9-3.2,2.7c-0.6,0.7-1.2,1.3-2.1,1.9c-0.6,0.4-1.2,0.6-1.8,0.8c-1.1,0.3-2,0.6-2.7,2.5C33.9,17.3,34,18.2,34,19
	s0.1,1.5-0.1,2.1c-0.3,1-1.1,1.7-1.9,2.5c-0.4,0.4-0.8,0.8-1.2,1.2c-1.3,1.7-1.4,2.1-1.2,3.5c0,0.3,0.1,0.6,0.1,0.9L7.1,56.6
	l0.8,0.7l0.8-0.9l0.9,0.9l0,0v1.5v0.9v7.1v2.6v7.1V79v7.1V87v1.2v0.6v26.7H0v1.6h264v-1.6H85.2V88.8v-0.6V87v-0.9V79v-2.6v-7.1v-2.6
	v-7.1V58.7L85.2,58.7z M74.8,69.3l3,7v0.1h-7.1v-7.1H74.8L74.8,69.3z M70.6,66.7v-7.1h0.1l3,7.1H70.6L70.6,66.7z M75.8,79l-5,7.1
	h-0.2V79H75.8L75.8,79z M77.6,69.3h4.9v0.2l-3,4.3L77.6,69.3L77.6,69.3z M82.5,74.1v2.3h-1.6L82.5,74.1L82.5,74.1z M82.5,79v7.1H74
	l5-7.1H82.5L82.5,79z M80.1,88.8v1.6l-1.6-1.6H80.1L80.1,88.8z M67.5,93.6l4.8-4.8h2.9l4.8,4.8v21.9H67.5V93.6L67.5,93.6z
	 M67.5,88.8h1.6l-1.6,1.6V88.8L67.5,88.8z M49.9,93.5l4.7-4.7h3.1l4.8,4.8v22H49.9V93.5L49.9,93.5z M60.9,88.8h1.5v1.5L60.9,88.8
	L60.9,88.8z M53.4,59.6v7.1h-12v-7.1H53.4L53.4,59.6z M42.5,56.7V15.4L47,10v46.7H42.5L42.5,56.7z M27.2,90.3l-1.5-1.5h1.5V90.3
	L27.2,90.3z M26.8,86.1V79h12v7.1H26.8L26.8,86.1z M26.8,69.3h12v7.1h-12V69.3L26.8,69.3z M37.3,56.7v-35l4.5-5.4v40.4L37.3,56.7
	L37.3,56.7z M41.4,86.1V79h12v7.1H41.4L41.4,86.1z M44.8,88.8v1.6l-1.6-1.6H44.8L44.8,88.8z M41.4,76.4v-7.1h12v7.1H41.4L41.4,76.4z
	 M52.9,16.3l4.5,5.4v35h-4.5V16.3L52.9,16.3z M49.9,88.8h1.5l-1.5,1.5V88.8L49.9,88.8z M32.3,93.6l4.8-4.8h2.8l4.8,4.8l0.1-0.1v22
	H32.3V93.6L32.3,93.6z M32.3,88.8h1.6l-1.6,1.6V88.8L32.3,88.8z M14.7,93.6l4.8-4.8h2.9l4.8,4.8v22H14.7V93.6L14.7,93.6z M24.2,69.3
	v7.1h-7l-0.1-0.1l2.9-7H24.2L24.2,69.3z M21.1,66.7l3-7.1h0.1v7.1H21.1L21.1,66.7z M24.2,79v7.1h-0.1L19,79H24.2L24.2,79z
	 M14.7,88.8h1.6l-1.6,1.6L14.7,88.8L14.7,88.8z M12.2,79h3.6l5,7.1h-8.6L12.2,79L12.2,79z M12.2,73.9l1.8,2.5h-1.8V73.9L12.2,73.9z
	 M12.2,69.3h4.9l-1.9,4.4L12.2,69.3L12.2,69.3L12.2,69.3z M15.7,56.7H9.8L9,55.9l6.7-8.1V56.7L15.7,56.7z M20.9,56.7h-4.5V47
	l4.5-5.4V56.7L20.9,56.7z M21.2,59.6l-3,7.1h-6v-7.1H21.2L21.2,59.6z M26.1,56.7h-4.5v-16l4.5-5.4V56.7L26.1,56.7z M26.8,59.6h12
	v7.1h-12V59.6L26.8,59.6z M32.1,56.7V28l4.5-5.4v34.1L32.1,56.7L32.1,56.7z M26.9,34.3l4.5-5.4v27.8h-4.5V34.3L26.9,34.3z M43.8,9.3
	l-0.1,3L30.2,28.7c0-0.1,0-0.2,0-0.4c-0.2-1.3-0.2-1.6,1-3.2c0.3-0.4,0.7-0.8,1.1-1.2c0.8-0.8,1.6-1.6,2-2.7
	c0.2-0.7,0.2-1.5,0.1-2.3c0-0.8-0.1-1.6,0.1-2.2c0.6-1.7,1.4-1.9,2.4-2.2c0.6-0.2,1.2-0.4,1.9-0.9c0.9-0.6,1.5-1.2,2.1-1.9
	C41.8,11,42.6,10.2,43.8,9.3L43.8,9.3z M51,7.6c-0.2,0-0.4,0.2-0.4,0.4l0.1,3.8l-3.3-4l-3.2,3.8l0.1-3.7c0-0.2-0.2-0.4-0.4-0.4H43
	c-0.1-0.1-0.2-0.2-0.4-0.2h-0.2c-0.1-0.2-0.2-0.3-0.3-0.4l0,0c0.2,0,0.4-0.2,0.4-0.4V4.4c0-0.1-0.1-0.2-0.1-0.3c0-0.1,0-0.1-0.1-0.2
	c0,0-0.1-0.1-0.1-0.2c-0.3-0.5-0.6-0.6-0.9-0.9c0,0-0.1,0-0.1-0.1c0.5,0,0.9-0.1,1.2-0.2c0.6-0.2,1.2-0.7,1.3-1c0,0,0.1-0.1,0.3-0.1
	c0.4,0,0.6-0.2,0.7-0.4c0-0.1,0.1-0.1,0.1-0.2C45,1,45,1,45,0.9c0.2-0.3,0.4-0.5,0.9-0.5c0.1,0,0.1,0,0.2,0c0,0.2-0.1,0.4-0.1,0.5
	s0,0.1,0,0.2c0,0.3-0.1,0.7,0.3,1c0.1,0,0.1,0.1,0.2,0.1l0,0c0.1,0.5,0.5,0.7,0.9,0.7c0,0,0,0,0.1,0c0.4,0,0.8-0.2,0.9-0.7l0,0
	c0.1,0,0.1-0.1,0.2-0.1c0.4-0.3,0.4-0.7,0.3-1c0,0,0-0.1,0-0.2c0-0.2-0.1-0.3-0.2-0.5c0.1,0,0.1,0,0.2,0c0.5,0,0.7,0.2,0.9,0.5
	L49.9,1C50,1.1,50,1.1,50,1.2c0.1,0.2,0.3,0.4,0.7,0.4c0.2,0,0.3,0,0.3,0.1c0.2,0.3,0.7,0.8,1.3,1c0.3,0.1,0.8,0.2,1.2,0.2
	c0,0-0.1,0-0.1,0.1c-0.3,0.2-0.6,0.4-0.9,0.9c-0.1,0.1-0.1,0.2-0.1,0.2c-0.1,0-0.2,0-0.2,0.1c-0.1,0.1-0.1,0.2-0.1,0.3v2.2
	c0,0.2,0.2,0.4,0.4,0.4l0,0c-0.1,0.1-0.2,0.3-0.3,0.4H52c-0.2,0-0.3,0.1-0.4,0.2L51,7.6L51,7.6z M52.2,15.4v41.3h-4.5V10L52.2,15.4
	L52.2,15.4z M64.7,28.3c0,0.2,0,0.4-0.1,0.5L51.1,12.5L51,9.3c1.2,0.8,2,1.6,2.8,2.4c0.6,0.7,1.3,1.3,2.1,1.9
	c0.7,0.5,1.3,0.7,1.9,0.9c1,0.3,1.8,0.5,2.4,2.2c0.2,0.6,0.2,1.4,0.1,2.2c0,0.8-0.1,1.6,0.1,2.3c0.4,1.1,1.2,1.9,2,2.7
	c0.4,0.4,0.8,0.8,1.1,1.2C64.9,26.7,64.8,27,64.7,28.3L64.7,28.3z M62.7,28v28.7h-4.5V22.6L62.7,28L62.7,28z M67.9,56.7h-4.5V28.9
	l4.5,5.4V56.7L67.9,56.7z M67.9,66.7H56v-7.1h12L67.9,66.7L67.9,66.7z M67.9,76.4H56v-7.1h12L67.9,76.4L67.9,76.4z M67.9,86.1H56V79
	h12L67.9,86.1L67.9,86.1z M73.1,56.7h-4.5V35.2l4.5,5.4V56.7L73.1,56.7z M73.5,59.6h9v7.1h-6L73.5,59.6L73.5,59.6z M78.3,56.7h-4.5
	V41.5l4.5,5.4V56.7L78.3,56.7z M85,56.7h-6v-8.8l6.7,8.1L85,56.7L85,56.7z"/>
<path class="st0" d="M109.3,116L107,92h-2.8l-1.9,9.6c-0.1,0.6-0.3,1.1-0.4,1.7c-0.1,0.9-0.3,1.8-0.4,2.6c-0.2,1.1-0.5,2.2-0.5,3.4
	c-0.3-1.9-0.5-3.9-0.9-5.8c-0.1-0.6-0.3-1.2-0.4-1.7l-2-9.8h-2.8l-2,24h3l0.9-16.5c0.7,5.6,2,11.1,3.2,16.5h2.2
	c1-5.5,2.2-11,3.1-16.5c0.2,1.1,0.1,2.2,0.1,3.3c0,1.1,0.1,2.1,0.1,3.2c0.1,3.3,0.4,6.7,0.6,10L109.3,116L109.3,116z M122.5,116v-16
	h-3v1.8c-0.6-1.3-1.4-2.1-2.9-2.1c-3.8,0-3.9,5.4-3.9,8.1s0,8.5,3.9,8.5c1.7,0,2.3-0.9,3-2.3v2.1L122.5,116L122.5,116z M119.6,108.9
	c0,1.3-0.1,4.8-1.9,4.8c-1.9,0-1.9-3.2-1.9-4.5V107c0-1.3,0.1-4.5,1.9-4.5s1.9,3.5,1.9,4.8V108.9L119.6,108.9z M130.9,89.8h-3v12.9
	l-2,2.1v2.8l2-2.1V116h3v-13.3l1.9-2.1v-2.8l-1.9,2.1V89.8L130.9,89.8z M147.1,100h-3l-2.8,11.2L139,100h-3.4l4.3,14.8l-2.6,8.1h3.1
	L147.1,100L147.1,100z M171.9,116V92h-3.2v9.4h-4.8V92h-3.2v24h3.2v-11.9h4.8V116H171.9L171.9,116z M186.3,108
	c0-3.5-0.5-8.3-5.1-8.3s-5,4.8-5,8.3s0.5,8.3,5,8.3C185.8,116.3,186.3,111.5,186.3,108L186.3,108z M183.2,109c0,1.3,0,4.6-1.9,4.6
	s-1.9-3.3-1.9-4.6v-2c0-1.3,0-4.6,1.9-4.6s1.9,3.3,1.9,4.6V109L183.2,109z M193.3,116V89.8h-3V116H193.3L193.3,116z M207,108.6
	c0-3.3-0.3-8.9-4.8-8.9s-4.9,5-4.9,8.4c0,3.5,0.4,8.2,4.9,8.2c1.8,0,3.3-0.9,4-2.4c0.5-1,0.6-2.1,0.6-3.2H204c0,1.2-0.3,3.1-1.8,3.1
	c-2.1,0-2.1-3.7-2.1-5.1L207,108.6L207,108.6z M200.3,106.4c0.1-1.2,0.1-4.2,1.9-4.2c1.8,0,1.8,3,1.9,4.2H200.3L200.3,106.4z
	 M220.5,116v-11.9c0-2.3-0.5-4.5-3.2-4.5c-1.7,0-2.5,0.8-3.3,2.1V100h-3v16h3v-10.4c0-1.4,0-3.3,1.9-3.3c1.7,0,1.7,1.8,1.7,3.3V116
	H220.5L220.5,116z M234.4,116V89.8h-3v12c-0.6-1.3-1.4-2.1-2.9-2.1c-3.9,0-3.9,5.4-3.9,8.1s0,8.5,3.9,8.5c1.7,0,2.3-0.9,3-2.3v2.1
	L234.4,116L234.4,116z M231.5,108.9c0,1.3-0.1,4.8-1.9,4.8c-1.9,0-1.9-3.2-1.9-4.5V107c0-1.3,0.1-4.5,1.9-4.5c1.8,0,1.9,3.5,1.9,4.8
	V108.9L231.5,108.9z M248.2,108.6c0-3.3-0.3-8.9-4.8-8.9s-4.9,5-4.9,8.4c0,3.5,0.4,8.2,4.9,8.2c1.8,0,3.3-0.9,4-2.4
	c0.5-1,0.6-2.1,0.6-3.2h-2.8c0,1.2-0.3,3.1-1.8,3.1c-2.1,0-2.1-3.7-2.1-5.1L248.2,108.6L248.2,108.6z M241.4,106.4
	c0.1-1.2,0.1-4.2,1.9-4.2c1.8,0,1.8,3,1.9,4.2H241.4L241.4,106.4z M258.6,99.6c-1.8,0.1-2.6,0.9-3.5,2.4v-2h-3v16h3v-9.8
	c0-2.2,0.5-3.6,3-3.6c0.2,0,0.4,0,0.5,0V99.6L258.6,99.6z"/>
<path class="st0" d="M102.2,75.3V50.5h-2.9v11.4c-0.7-1.2-1.4-2-2.7-2c-3.7,0-3.7,5.1-3.7,7.6c0,2.5,0,8,3.7,8
	c1.5,0,2.2-0.8,2.9-2.2v1.9h2.7V75.3z M99.5,68.5c0,1.2,0,4.4-1.9,4.4c-1.9,0-1.9-3-1.9-4.2v-2c0-1.2,0-4.2,1.9-4.2
	c1.7,0,1.9,3.2,1.9,4.4V68.5L99.5,68.5z M114.4,67.7c0-3.2-0.5-7.8-4.9-7.8c-4.4,0-4.9,4.6-4.9,7.8c0,3.2,0.5,7.8,4.9,7.8
	C114.1,75.5,114.4,71,114.4,67.7L114.4,67.7z M111.5,68.5c0,1.2,0,4.2-1.9,4.2c-1.9,0-1.9-3-1.9-4.4v-1.9c0-1.2,0-4.2,1.9-4.2
	c1.9,0,1.9,3,1.9,4.4V68.5L111.5,68.5z M132.2,75.3v-12c0-2-1.2-3.4-3.4-3.4c-1.7,0-2.5,0.7-3.2,2c-0.5-1.4-1.2-2-2.7-2
	c-1.5,0-2.2,0.8-3,2V60H117v15.1h2.9v-10c0-1.4,0-2.9,1.7-2.9s1.7,1.7,1.7,2.9v10h2.9v-10c0-1.4,0-2.9,1.7-2.9
	c1.7,0,1.5,1.7,1.5,2.9v10h2.9L132.2,75.3L132.2,75.3z M146.6,60h-2.9v21.5h2.9v-8.1c0.7,1.2,1.4,1.9,2.7,1.9c3.7,0,3.7-5.1,3.7-7.6
	c0-2.5,0-8-3.7-8c-1.5,0-2.2,0.8-2.9,2.2L146.6,60L146.6,60z M150.2,68.7c0,1.2,0,4.2-1.9,4.2c-1.7,0-1.9-3.4-1.9-4.6v-1.5
	c0-1.2,0-4.6,1.9-4.6c1.9,0,1.9,3,1.9,4.2V68.7L150.2,68.7z M164.9,67.7c0-3.2-0.5-7.8-4.9-7.8c-4.4,0-4.9,4.6-4.9,7.8
	c0,3.2,0.5,7.8,4.9,7.8C164.4,75.5,164.9,71,164.9,67.7L164.9,67.7z M162,68.5c0,1.2,0,4.2-1.9,4.2c-1.9,0-1.9-3-1.9-4.4v-1.9
	c0-1.2,0-4.2,1.9-4.2c1.9,0,1.9,3,1.9,4.4V68.5L162,68.5z M176.4,75.3V50.5h-2.9v11.4c-0.7-1.2-1.4-2-2.7-2c-3.7,0-3.7,5.1-3.7,7.6
	c0,2.5,0,8,3.7,8c1.5,0,2.2-0.8,2.9-2.2v1.9h2.7V75.3z M173.7,68.5c0,1.2,0,4.4-1.9,4.4s-1.9-3-1.9-4.2v-2c0-1.2,0-4.2,1.9-4.2
	c1.7,0,1.9,3.2,1.9,4.4V68.5L173.7,68.5z M185.9,72.2c-0.5,0.3-0.8,0.5-1.5,0.5c-2.2,0-2.4-3.7-2.4-5.3c0-1.5,0-5.1,2.4-5.1
	c0.7,0,1,0.2,1.4,0.7v-2.9c-0.8-0.3-1.4-0.5-2.2-0.5c-4.2,0-4.7,4.7-4.7,8c0,3,0.5,7.8,4.6,7.8c1,0,1.5-0.2,2.2-0.7v-2.5L185.9,72.2
	L185.9,72.2z M191.2,55.6c0-1-0.8-1.9-1.9-1.9s-1.9,0.8-1.9,1.9s0.8,1.9,1.9,1.9S191.2,56.6,191.2,55.6L191.2,55.6z M190.8,75.3
	V60.2h-2.9v15.1H190.8L190.8,75.3z M202.5,68.2c0-3.2-0.3-8.3-4.6-8.3s-4.7,4.7-4.7,7.8c0,3.2,0.3,7.8,4.7,7.8
	c1.7,0,3.2-0.8,3.9-2.4c0.5-1,0.5-2,0.5-3h-2.7c0,1.2-0.2,2.9-1.7,2.9c-2,0-2-3.6-2-4.9L202.5,68.2L202.5,68.2z M196.1,66.1
	c0-1.2,0.2-3.9,1.9-3.9s1.7,2.7,1.9,3.9H196.1L196.1,66.1z M214.2,75.3V64.1c0-2.2-0.5-4.2-3-4.2c-1.5,0-2.4,0.7-3.2,2v-1.7h-2.9
	v15.1h2.9v-9.8c0-1.4,0-3.2,1.9-3.2c1.5,0,1.7,1.7,1.7,3v9.8h2.7L214.2,75.3L214.2,75.3z M220.3,55.6c0-1-0.8-1.9-1.9-1.9
	s-1.9,0.8-1.9,1.9s0.8,1.9,1.9,1.9S220.3,56.6,220.3,55.6L220.3,55.6z M220,75.3V60.2h-2.9v15.1H220L220,75.3z M232,67.7
	c0-3.2-0.5-7.8-4.9-7.8s-4.9,4.6-4.9,7.8c0,3.2,0.5,7.8,4.9,7.8C231.6,75.5,232,71,232,67.7L232,67.7z M229.1,68.5
	c0,1.2,0,4.2-1.9,4.2c-1.9,0-1.9-3-1.9-4.4v-1.9c0-1.2,0-4.2,1.9-4.2c1.9,0,1.9,3,1.9,4.4V68.5L229.1,68.5z M248.3,60h-2.9
	c-0.7,3.6-1.5,7.3-1.9,10.8c-0.2-1.2-0.2-2.4-0.3-3.6c-0.5-2.4-1-4.9-1.4-7.3h-2c-0.3,2.2-0.8,4.6-1.4,6.8c-0.2,1.4-0.5,2.7-0.5,4.1
	c-0.2-1.5-0.3-2.9-0.5-4.4c-0.3-2.2-0.7-4.2-1.2-6.4h-3l3.7,15.1h2c0.7-3.7,1.5-7.3,1.9-11.2c0,0.7,0.2,1.5,0.2,2.2
	c0.2,1,0.3,2,0.5,3l1.2,5.8h2L248.3,60L248.3,60z M260.5,60h-2.9l-2.7,10.5L252.7,60h-3.2l4.1,13.9l-2.5,7.6h3L260.5,60L260.5,60z"
	/>
</svg>
